<?xml version="1.0" encoding="utf-8"?>
<!-- Generator: Adobe Illustrator 19.2.1, SVG Export Plug-In . SVG Version: 6.00 Build 0)  -->
<svg version="1.1"
	 id="svg2" inkscape:output_extension="org.inkscape.output.svg.inkscape" inkscape:version="0.46" sodipodi:docname="juntadeandalucia.svg" sodipodi:version="0.32" xmlns:cc="http://creativecommons.org/ns#" xmlns:dc="http://purl.org/dc/elements/1.1/" xmlns:inkscape="http://www.inkscape.org/namespaces/inkscape" xmlns:rdf="http://www.w3.org/1999/02/22-rdf-syntax-ns#" xmlns:sodipodi="http://sodipodi.sourceforge.net/DTD/sodipodi-0.dtd" xmlns:svg="http://www.w3.org/2000/svg"
	 xmlns="http://www.w3.org/2000/svg" xmlns:xlink="http://www.w3.org/1999/xlink" x="0px" y="0px" viewBox="0 0 623.8 497.1"
	 style="enable-background:new 0 0 623.8 497.1;" xml:space="preserve">
<style type="text/css">
	.st0{fill:#00843D;}
	.st1{fill-rule:evenodd;clip-rule:evenodd;fill:#00843D;}
</style>
<defs>
	
	
		<inkscape:perspective  id="perspective9" inkscape:persp3d-origin="372.04724 : 350.78739 : 1" inkscape:vp_x="0 : 526.18109 : 1" inkscape:vp_y="0 : 1000 : 0" inkscape:vp_z="744.09448 : 526.18109 : 1" sodipodi:type="inkscape:persp3d">
		</inkscape:perspective>
</defs>
<sodipodi:namedview  bordercolor="#666666" borderopacity="1.0" gridtolerance="10.0" guidetolerance="10.0" id="base" inkscape:current-layer="g2487" inkscape:cx="320" inkscape:cy="413.22284" inkscape:guide-bbox="true" inkscape:pageopacity="0.0" inkscape:pageshadow="2" inkscape:window-height="750" inkscape:window-width="1280" inkscape:window-x="-8" inkscape:window-y="-8" inkscape:zoom="0.046148916" objecttolerance="10.0" pagecolor="#ffffff" showgrid="true" showguides="true">
	<inkscape:grid  enabled="true" id="grid2453" spacingx="20px" spacingy="20px" type="xygrid" visible="true"></inkscape:grid>
	<sodipodi:guide  id="guide2463" orientation="0,1" position="-48.18223,399.78229"></sodipodi:guide>
	<sodipodi:guide  id="guide2467" orientation="1,0" position="581.28913,125.4512"></sodipodi:guide>
	<sodipodi:guide  id="guide2473" orientation="0,1" position="125.4512,120.66298"></sodipodi:guide>
	<sodipodi:guide  id="guide2475" orientation="0,1" position="666.51934,-72.780847"></sodipodi:guide>
	<sodipodi:guide  id="guide2477" orientation="0,1" position="81.935836,178.7691"></sodipodi:guide>
</sodipodi:namedview>
<g>
	<path class="st0" d="M45.3,423.5c0,6.6,5.4,12,12,12s12-5.4,12-12l0-38.4h-12v6.8h5.3v31.7c0,2.9-2.4,5.3-5.3,5.3
		c-2.9,0-5.3-2.4-5.3-5.3H45.3L45.3,423.5z"/>
	<path class="st0" d="M97.3,385.1v38.4c0,2.9-2.4,5.3-5.3,5.3c-2.9,0-5.3-2.4-5.3-5.3v-38.4H74.7v6.8H80v31.7c0,6.6,5.4,12,12,12
		c6.6,0,12-5.4,12-12v-38.4L97.3,385.1L97.3,385.1z"/>
	<polygon class="st0" points="131.9,408.9 121.4,395.9 121.4,435.6 114.6,435.6 114.6,391.8 109.3,391.8 109.3,385.1 121.4,385.1 
		131.9,398.2 131.9,385.1 138.6,385.1 138.6,435.6 131.9,435.6 131.9,408.9 	"/>
	<polygon class="st0" points="157.4,435.6 157.4,391.8 164.2,391.8 164.2,385.1 143.9,385.1 143.9,391.8 150.7,391.8 150.7,435.6 
		157.4,435.6 	"/>
	<path class="st1" d="M169.5,391.8v-6.8h15.7c3.9,0,7,2.8,7.6,6.6l6.8,43.9l-6.8,0l-3.3-21.2h-9.9l-3.3,21.2h-6.8l6.8-43.7
		L169.5,391.8L169.5,391.8z M183.1,391.8l-2.5,15.8h7.8l-2.3-14.9c-0.1-0.5-0.5-0.9-1-0.9H183.1L183.1,391.8z"/>
	<polygon class="st0" points="258.6,385.1 258.6,391.8 263.9,391.8 263.9,435.5 285.6,435.5 284.2,428.8 270.7,428.8 270.7,414.4 
		277.4,414.4 277.4,407.6 270.7,407.6 270.7,391.8 284.2,391.8 284.2,385.1 258.6,385.1 	"/>
	<path class="st1" d="M239.6,428.8v-36.9h5.4c2.9,0,5.2,2.4,5.2,5.3v26.4c0,2.9-2.4,5.3-5.3,5.3L239.6,428.8L239.6,428.8z
		 M245,435.5c6.6,0,11.9-5.4,11.9-12l0-26.4c0-6.6-5.4-12-12-12h-17.3v6.8h5.3v43.7L245,435.5L245,435.5z"/>
	<path class="st1" d="M548.4,391.8v-6.8h15.7c3.9,0,7,2.8,7.6,6.6l6.8,43.9l-6.8,0l-3.3-21.2h-9.9l-3.3,21.2h-6.8l6.8-43.7
		L548.4,391.8L548.4,391.8z M562,391.8l-2.5,15.8h7.8l-2.3-14.9c-0.1-0.5-0.5-0.9-1-0.9H562L562,391.8z"/>
	<polygon class="st0" points="368,408.9 357.5,395.9 357.5,435.6 350.7,435.6 350.7,391.8 345.4,391.8 345.4,385.1 357.5,385.1 
		368,398.2 368,385.1 374.7,385.1 374.7,435.6 368,435.6 368,408.9 	"/>
	<path class="st1" d="M313.4,391.8v-6.8h15.7c3.9,0,7,2.8,7.6,6.6l6.8,43.9l-6.8,0l-3.3-21.2h-9.9l-3.3,21.2h-6.8l6.8-43.7
		L313.4,391.8L313.4,391.8z M327.1,391.8l-2.5,15.8h7.8l-2.3-14.9c-0.1-0.5-0.5-0.9-1-0.9H327.1L327.1,391.8z"/>
	<path class="st1" d="M397.5,435.5c6.6,0,11.9-5.4,11.9-12l0-26.4c0-6.6-5.4-12-12-12h-17.3v6.8h5.3v43.7L397.5,435.5L397.5,435.5z
		 M392.2,428.8v-36.9h5.4c2.9,0,5.2,2.4,5.2,5.3v26.4c0,2.9-2.4,5.3-5.3,5.3L392.2,428.8L392.2,428.8z"/>
	<path class="st1" d="M416.7,391.9v-6.8h15.7c3.9,0,7,2.8,7.6,6.6l6.8,43.9l-6.8,0l-3.3-21.2h-9.9l-3.3,21.2h-6.8l6.8-43.7
		L416.7,391.9L416.7,391.9z M430.3,391.9l-2.5,15.8h7.8l-2.3-14.9c-0.1-0.5-0.5-0.9-1-0.9H430.3L430.3,391.9z"/>
	<path class="st0" d="M493.9,385.1v38.4c0,2.9-2.4,5.3-5.3,5.3c-2.9,0-5.3-2.4-5.3-5.3v-38.4h-12.1v6.8h5.3v31.7c0,6.6,5.4,12,12,12
		c6.6,0,12-5.4,12-12v-38.4L493.9,385.1L493.9,385.1z"/>
	<path class="st0" d="M523.8,391.8h-5.4c-2.9,0-5.2,2.4-5.2,5.3v26.4c0,2.9,2.4,5.3,5.3,5.3l5.3,0l1.4,6.8l-6.8,0
		c-6.6,0-11.9-5.4-11.9-12l0-26.4c0-6.6,5.4-12,12-12h5.2L523.8,391.8L523.8,391.8z"/>
	<polygon class="st0" points="541.3,435.5 541.3,385.1 529.2,385.1 529.2,391.8 534.5,391.8 534.5,435.5 541.3,435.5 	"/>
	<polygon class="st0" points="448.4,385.1 448.4,391.8 453.7,391.8 453.7,435.5 475.4,435.5 474,428.8 460.5,428.8 460.5,391.8 
		460.5,391.8 460.5,385.1 448.4,385.1 	"/>
	<path class="st0" d="M312,102.1c82.5,0.2,164.8,31.7,227.7,94.6c14.7,14.7,27.6,30.4,38.9,46.9c-14-35.7-35.4-69.2-64.3-98
		c-55.9-55.9-129.1-83.9-202.4-84.1c-73.3,0.2-146.5,28.2-202.4,84.1c-28.9,28.9-50.3,62.3-64.3,98c11.3-16.5,24.2-32.3,38.9-46.9
		C147.1,133.8,229.5,102.3,312,102.1L312,102.1z"/>
	<polygon class="st0" points="349.1,344.7 274.8,344.7 311.9,223.4 349.1,344.7 	"/>
	<path class="st0" d="M312,183.1c64.1,0.2,128.1,24.7,176.9,73.6c9.2,9.2,17.6,19,25.1,29.2c-10.4-29.3-27-56.9-50.5-80.3
		c-41.9-41.9-96.7-62.9-151.6-63.1c-54.9,0.2-109.7,21.2-151.6,63.1c-23.4,23.4-40.1,51-50.5,80.3c7.5-10.2,15.9-20,25.1-29.2
		C183.8,207.8,247.9,183.3,312,183.1L312,183.1z"/>
</g>
</svg>
